<?xml version="1.0" standalone="no"?>
<!DOCTYPE svg PUBLIC "-//W3C//DTD SVG 20010904//EN"
 "http://www.w3.org/TR/2001/REC-SVG-20010904/DTD/svg10.dtd">
<svg version="1.0" xmlns="http://www.w3.org/2000/svg"
 width="600.000000pt" height="500.000000pt" viewBox="0 0 600.000000 500.000000"
 preserveAspectRatio="xMidYMid meet">

<g transform="translate(0.000000,500.000000) scale(0.100000,-0.100000)"
fill="#000000" stroke="none">
<path d="M1176 3178 c-28 -16 -17 -26 18 -18 19 4 38 5 41 2 9 -9 35 -11 35
-2 0 17 -72 30 -94 18z"/>
<path d="M1410 3154 c0 -2 10 -8 21 -15 15 -8 19 -8 15 0 -4 6 -2 11 3 11 6 0
11 -4 11 -8 0 -4 15 -16 33 -26 l32 -19 -30 28 c-16 16 -42 30 -57 31 -16 1
-28 0 -28 -2z"/>
<path d="M1285 3140 c3 -5 11 -10 16 -10 6 0 7 5 4 10 -3 6 -11 10 -16 10 -6
0 -7 -4 -4 -10z"/>
<path d="M1141 3123 c-1 -7 -7 -13 -14 -13 -7 0 -18 -15 -25 -33 -16 -44 -15
-57 3 -57 8 0 15 7 15 16 0 10 6 14 14 11 15 -6 16 9 2 32 -5 8 -4 16 4 21 7
4 10 14 7 21 -4 10 -6 10 -6 2z"/>
<path d="M1290 3112 c0 -17 -42 -57 -61 -57 -10 0 -19 -4 -19 -10 0 -5 13 -10
29 -10 20 1 27 -3 24 -12 -6 -14 29 -17 62 -4 18 7 18 8 1 18 -14 8 -15 12 -6
18 7 4 16 2 21 -6 6 -10 9 -10 9 -2 0 7 -9 18 -20 25 -11 7 -20 18 -20 25 0 6
-4 15 -10 18 -5 3 -10 2 -10 -3z"/>
<path d="M973 3059 c-24 -9 -58 -52 -44 -57 21 -7 91 20 101 38 6 11 9 21 8
21 -12 6 -47 5 -65 -2z"/>
<path d="M1160 3049 c0 -5 4 -8 9 -5 5 4 12 0 14 -6 3 -8 6 -6 6 5 1 9 -6 17
-14 17 -8 0 -15 -5 -15 -11z"/>
<path d="M1040 2999 c0 -5 5 -7 10 -4 6 3 10 8 10 11 0 2 -4 4 -10 4 -5 0 -10
-5 -10 -11z"/>
<path d="M895 2990 c3 -5 1 -10 -5 -10 -6 0 -8 -5 -5 -10 4 -6 15 -8 26 -5 14
5 19 2 19 -13 0 -26 -27 -36 -39 -14 -9 16 -10 16 -17 -2 -5 -13 -2 -23 9 -31
20 -15 22 -29 4 -44 -11 -8 -13 -6 -13 11 1 15 -5 22 -22 23 -13 1 -28 8 -32
15 -7 12 -12 12 -27 -1 -10 -9 -28 -18 -39 -21 -17 -4 -20 -2 -16 14 4 18 3
19 -17 7 -19 -12 -26 -24 -18 -32 1 -1 -8 -13 -20 -27 -13 -13 -23 -32 -23
-42 0 -10 -4 -18 -8 -18 -11 0 -43 -56 -48 -85 -2 -13 2 -27 9 -32 14 -8 50
-89 61 -135 8 -33 22 -36 31 -8 4 11 11 18 16 15 15 -10 10 12 -6 25 -16 14
-5 30 30 44 15 5 16 9 6 15 -8 6 -20 2 -32 -10 -31 -31 -38 -22 -17 21 20 39
36 56 24 24 -5 -14 -4 -15 9 -4 8 7 15 10 15 6 0 -4 11 1 25 10 14 9 28 15 30
12 3 -3 -2 -27 -10 -54 -8 -27 -15 -52 -15 -56 0 -8 105 -88 116 -88 4 0 16
-7 26 -17 10 -9 28 -21 39 -27 17 -9 22 -21 23 -65 1 -40 -2 -55 -14 -59 -18
-7 -56 -53 -52 -64 3 -12 -13 -9 -27 5 -10 10 -11 9 -6 -5 5 -13 2 -18 -9 -18
-9 0 -16 -8 -16 -21 0 -13 4 -18 12 -13 8 5 9 2 5 -10 -7 -18 21 -91 31 -82 3
3 11 -2 18 -12 13 -16 16 -14 44 18 32 38 39 63 15 54 -10 -4 -15 0 -15 11 0
32 20 54 55 61 19 3 35 11 35 16 0 7 14 8 36 5 27 -5 40 -1 55 14 21 21 24 35
10 44 -5 3 -17 30 -25 59 -16 55 -32 71 -57 55 -30 -19 -39 -10 -39 37 0 36 3
44 13 37 6 -5 22 -10 35 -11 21 -1 22 3 22 68 0 59 -3 70 -19 75 -11 3 -26 17
-35 30 -10 15 -22 22 -31 19 -10 -4 -15 0 -15 15 0 13 5 19 14 15 8 -3 16 3
19 15 3 12 1 19 -4 15 -5 -3 -9 0 -9 5 0 6 5 11 11 11 6 0 8 7 5 16 -4 10 -1
14 6 11 7 -2 12 -12 12 -21 -2 -14 18 -17 54 -7 1 1 -2 10 -8 22 -7 12 -18 18
-26 15 -8 -3 -14 0 -14 5 0 6 9 9 20 6 15 -4 20 0 20 15 0 10 5 16 10 13 18
-11 11 23 -7 37 -10 7 -17 20 -17 28 1 8 2 21 3 28 0 6 8 12 17 12 14 0 14 -3
4 -15 -10 -13 -9 -15 10 -15 18 0 20 -3 11 -14 -8 -10 -9 -16 -1 -21 5 -3 11
-21 11 -38 1 -30 2 -31 8 -6 4 18 12 25 24 23 17 -2 17 -1 3 21 -9 14 -16 31
-16 39 0 8 -6 17 -12 19 -7 3 -3 6 10 6 27 1 29 26 4 40 -22 12 -62 10 -62 -2
0 -5 -8 -6 -18 -2 -23 7 -73 -30 -66 -49 3 -7 -1 -16 -9 -19 -10 -4 -12 2 -9
24 2 15 12 30 21 32 14 4 14 5 -1 12 -10 4 -26 4 -35 0 -22 -10 -65 -6 -77 6
-13 12 -29 12 -21 -1z m85 -74 c0 -2 -7 -7 -16 -10 -8 -3 -12 -2 -9 4 6 10 25
14 25 6z m-25 -25 c5 -1 5 -5 -1 -11 -11 -11 -44 -3 -44 10 0 5 8 7 18 5 9 -2
21 -4 27 -4z m120 -11 c3 -6 -1 -7 -9 -4 -18 7 -21 14 -7 14 6 0 13 -4 16 -10z
m-271 -33 c3 4 6 1 6 -6 0 -6 -8 -11 -17 -9 -13 2 -18 -4 -18 -22 -1 -17 -6
-25 -17 -24 -10 1 -19 -8 -22 -22 -6 -24 -45 -67 -65 -71 -13 -3 -15 43 -2 51
5 4 12 0 14 -6 3 -7 6 -3 6 8 1 12 8 24 16 28 11 4 14 14 10 33 -3 22 0 31 18
39 12 5 32 7 43 3 12 -4 25 -5 28 -2z m79 -62 c-3 -9 -8 -14 -10 -11 -3 3 -2
9 2 15 9 16 15 13 8 -4z m-105 -25 c-7 -11 -15 -15 -17 -9 -2 6 3 15 10 20 20
12 21 11 7 -11z m192 1 c0 -6 -4 -13 -10 -16 -5 -3 -10 1 -10 9 0 9 5 16 10
16 6 0 10 -4 10 -9z m-200 -53 c0 -18 -2 -20 -9 -8 -6 8 -7 18 -5 22 9 14 14
9 14 -14z m-80 -73 c0 -5 -5 -3 -10 5 -5 8 -10 20 -10 25 0 6 5 3 10 -5 5 -8
10 -19 10 -25z m321 -308 c-10 -9 -11 -8 -5 6 3 10 9 15 12 12 3 -3 0 -11 -7
-18z"/>
<path d="M2016 2949 c-34 -31 -37 -38 -27 -57 6 -12 16 -22 21 -22 16 0 78
-122 94 -185 43 -162 -4 -324 -129 -451 -68 -69 -139 -107 -247 -131 -131 -29
-278 11 -399 109 l-56 46 -27 -26 c-23 -24 -28 -25 -48 -13 -20 12 -36 -2
-282 -248 l-260 -260 29 -31 29 -30 -32 -33 c-30 -31 -31 -34 -17 -55 25 -35
129 -110 219 -158 160 -85 285 -116 466 -116 277 0 503 94 701 291 197 198
291 424 291 701 0 76 -6 152 -15 195 -38 172 -121 340 -224 454 l-49 55 -38
-35z m204 -373 c0 -3 -4 -8 -10 -11 -5 -3 -10 -1 -10 4 0 6 5 11 10 11 6 0 10
-2 10 -4z m-194 -421 c20 -30 31 -31 87 -6 74 33 79 34 75 8 -1 -12 4 -37 11
-55 18 -44 2 -101 -39 -132 -16 -13 -30 -31 -30 -41 0 -10 -4 -21 -10 -24 -5
-3 -10 -1 -10 5 0 6 -5 8 -10 5 -6 -4 -8 -11 -5 -16 4 -5 1 -9 -4 -9 -6 0 -11
5 -11 10 0 6 -13 1 -30 -11 -24 -18 -32 -20 -45 -9 -12 10 -15 10 -15 -3 0 -8
5 -17 11 -19 5 -2 7 -11 3 -21 -4 -11 -13 -16 -21 -13 -8 3 -31 -6 -51 -22
-20 -15 -32 -20 -27 -12 8 13 7 13 -9 1 -9 -8 -15 -20 -12 -27 3 -8 0 -11 -9
-7 -8 3 -12 9 -9 15 8 13 -59 -22 -68 -35 -3 -6 -4 -16 -1 -23 3 -8 -2 -11
-16 -7 -13 3 -23 0 -27 -11 -5 -12 -10 -13 -25 -6 -15 9 -20 6 -25 -15 -6 -26
-24 -35 -24 -12 0 9 -2 9 -9 -1 -4 -7 -19 -11 -33 -8 -22 3 -25 0 -25 -20 0
-13 3 -21 8 -19 4 3 10 1 14 -5 3 -5 1 -10 -4 -10 -6 0 -11 -4 -11 -10 0 -15
28 0 33 18 3 12 5 9 6 -6 0 -13 6 -20 11 -17 6 3 10 -3 10 -14 0 -12 -7 -21
-15 -21 -8 0 -15 5 -15 11 0 8 -4 8 -14 0 -11 -9 -16 -9 -21 0 -6 8 -10 7 -16
-2 -7 -12 -9 -11 -10 1 0 10 -3 8 -9 -5 -8 -18 -9 -18 -9 -2 -1 15 -4 16 -22
6 -15 -8 -19 -8 -15 0 10 16 -3 13 -20 -4 -14 -13 -17 -13 -32 1 -12 12 -17
13 -20 4 -2 -6 1 -17 7 -23 14 -14 14 -27 1 -27 -5 0 -9 5 -7 11 1 6 -4 14
-12 17 -8 2 -11 0 -7 -6 6 -11 -20 -24 -39 -19 -30 7 23 72 66 81 17 3 29 12
29 21 0 8 5 15 11 15 6 0 37 27 70 61 58 60 121 109 139 109 13 0 13 17 0 22
-5 2 6 33 24 70 42 82 35 101 -37 102 -25 1 -52 7 -59 14 -6 6 -22 12 -33 12
-12 0 -32 11 -44 24 l-23 24 39 -8 c66 -15 191 -14 210 1 14 12 16 12 8 0 -6
-11 -5 -12 6 -5 19 12 69 14 69 2 0 -5 -4 -6 -10 -3 -5 3 -10 -1 -10 -9 0 -24
21 -30 27 -7 3 11 9 19 13 16 17 -10 70 8 70 24 0 14 2 14 10 1 6 -9 10 -10
10 -3 0 21 -20 25 -45 9 -13 -9 -30 -16 -37 -15 -7 0 -4 4 7 9 11 5 15 9 8 9
-19 1 -4 28 20 36 12 4 25 7 30 6 4 -1 6 2 5 7 -2 12 14 42 23 42 5 0 16 -11
25 -25z m-510 -93 c-10 -2 -22 0 -28 6 -6 6 0 7 19 4 21 -5 23 -7 9 -10z m644
-116 c0 -3 -4 -8 -10 -11 -5 -3 -10 -1 -10 4 0 6 5 11 10 11 6 0 10 -2 10 -4z
m-993 -106 c-3 -12 4 -22 19 -31 13 -7 24 -16 24 -21 0 -4 8 -8 17 -8 26 0 53
-31 53 -61 0 -15 -4 -30 -9 -34 -6 -3 -10 -13 -10 -23 -2 -43 -7 -71 -13 -77
-4 -4 -4 -14 -1 -23 4 -10 2 -13 -5 -8 -6 4 -11 17 -11 29 1 12 -6 39 -15 60
-14 31 -20 36 -39 32 -13 -4 -31 -7 -40 -9 -9 -1 -20 -5 -23 -9 -11 -10 -24
-8 -24 4 0 5 5 7 10 4 6 -3 10 -1 10 4 0 6 -7 12 -15 12 -8 1 -19 3 -25 4 -5
1 -16 3 -22 4 -7 1 2 8 20 16 27 12 32 19 27 35 -3 11 -2 20 4 20 5 0 12 15
16 33 9 42 33 79 46 71 6 -3 9 -14 6 -24z m873 4 c0 -8 -4 -12 -10 -9 -5 3
-10 10 -10 16 0 5 5 9 10 9 6 0 10 -7 10 -16z m-190 -98 c0 -3 -4 -8 -10 -11
-5 -3 -10 -1 -10 4 0 6 5 11 10 11 6 0 10 -2 10 -4z m-90 -90 c0 -3 -4 -8 -10
-11 -5 -3 -10 -1 -10 4 0 6 5 11 10 11 6 0 10 -2 10 -4z m-760 -66 c0 -5 -2
-10 -4 -10 -3 0 -8 5 -11 10 -3 6 -1 10 4 10 6 0 11 -4 11 -10z"/>
<path d="M1944 1985 c-4 -8 -9 -13 -14 -10 -4 2 -5 -7 -2 -20 3 -16 0 -25 -8
-25 -7 0 -10 7 -6 17 6 15 4 15 -14 -2 -15 -14 -20 -15 -20 -4 0 12 -2 12 -9
0 -5 -8 -3 -25 7 -44 12 -25 17 -28 26 -16 6 8 21 13 34 11 21 -3 22 -1 16 36
-4 25 -2 42 5 46 6 4 11 11 11 17 0 15 -20 10 -26 -6z"/>
<path d="M1826 1883 c-11 -11 -6 -23 9 -23 8 0 15 4 15 9 0 13 -16 22 -24 14z"/>
<path d="M1930 1819 c0 -5 5 -7 10 -4 6 3 10 8 10 11 0 2 -4 4 -10 4 -5 0 -10
-5 -10 -11z"/>
<path d="M1777 1753 c-4 -3 -7 -11 -7 -17 0 -6 5 -5 12 2 6 6 9 14 7 17 -3 3
-9 2 -12 -2z"/>
<path d="M1126 1715 c-4 -13 -2 -14 14 -5 23 13 26 20 6 20 -8 0 -16 -7 -20
-15z"/>
<path d="M1564 2955 c3 -8 1 -15 -3 -15 -5 0 -11 5 -13 12 -3 9 -14 8 -44 -3
-30 -11 -40 -21 -42 -42 -3 -28 -20 -35 -39 -16 -8 8 -19 5 -42 -12 -17 -12
-31 -26 -31 -30 0 -4 -13 -21 -29 -38 -51 -54 -75 -132 -75 -242 -1 -91 1
-100 37 -173 40 -80 88 -125 184 -175 64 -32 169 -47 242 -34 82 16 152 48
158 73 3 12 11 19 19 16 26 -10 128 130 117 162 -3 6 0 12 6 12 5 0 13 28 17
63 9 69 7 89 -8 98 -7 4 -6 8 2 11 9 3 7 22 -9 76 -19 62 -25 71 -43 69 -14
-1 -26 6 -33 19 -8 17 -14 19 -27 10 -14 -8 -21 -6 -32 9 -21 27 -20 65 0 65
9 0 25 -10 35 -22 18 -22 19 -22 17 -3 -4 26 -86 82 -154 106 -70 25 -219 27
-210 4z m134 -7 c13 -13 16 -54 4 -61 -4 -3 -7 7 -7 21 0 15 -4 28 -10 29 -5
1 -10 -6 -9 -17 0 -10 -3 -17 -8 -14 -10 6 -11 38 -1 47 9 10 17 9 31 -5z
m-63 -28 c3 -5 2 -10 -4 -10 -5 0 -13 5 -16 10 -3 6 -2 10 4 10 5 0 13 -4 16
-10z m133 -2 c15 -15 16 -55 2 -63 -16 -10 -40 14 -40 40 0 34 16 45 38 23z
m-268 -17 c0 -11 3 -26 6 -35 3 -9 2 -16 -4 -16 -5 0 -12 16 -14 35 -2 19 0
35 4 35 4 0 8 -9 8 -19z m329 -29 c-2 -15 0 -33 4 -40 9 -14 -2 -16 -22 -3 -9
6 -10 11 -2 15 6 4 8 18 5 32 -4 15 -2 24 6 24 7 0 10 -11 9 -28z m-272 11
c-13 -3 -16 -11 -12 -26 5 -19 5 -20 -5 -4 -13 21 -5 37 18 36 15 -1 15 -2 -1
-6z m27 -46 c-3 -9 -13 -17 -22 -17 -13 0 -13 2 3 13 11 9 15 19 10 28 -6 10
-5 11 4 3 6 -6 9 -18 5 -27z m-184 -19 c0 -9 -4 -20 -10 -23 -6 -4 -10 9 -10
32 0 28 3 34 10 23 5 -8 10 -23 10 -32z m207 5 c-3 -10 -5 -4 -5 12 0 17 2 24
5 18 2 -7 2 -21 0 -30z m-169 -13 c-14 -22 -24 -19 -15 5 4 8 11 15 17 15 6 0
6 -7 -2 -20z m209 -5 c-4 -8 -12 -15 -19 -14 -10 0 -10 2 0 6 6 2 12 12 12 21
0 8 3 13 6 9 4 -3 4 -13 1 -22z m-157 -8 c15 4 18 1 13 -16 -4 -14 -12 -20
-27 -17 -11 2 -20 6 -18 9 1 4 2 15 3 25 0 9 3 12 5 6 3 -7 13 -10 24 -7z
m204 -23 c3 -8 2 -12 -4 -9 -6 3 -10 10 -10 16 0 14 7 11 14 -7z m-168 -42
c-11 -10 -15 4 -8 28 l7 25 3 -23 c2 -13 1 -26 -2 -30z m313 14 c-3 -3 -11 5
-18 17 -13 21 -12 21 5 5 10 -10 16 -20 13 -22z m-260 -28 c1 -10 -3 -18 -9
-18 -5 0 -10 17 -9 38 0 30 2 33 9 17 5 -11 9 -28 9 -37z m53 14 c-18 -6 -15
-42 4 -42 11 0 14 5 9 18 -5 13 -3 14 6 5 13 -13 6 -43 -10 -43 -6 0 -18 11
-27 25 -13 20 -14 28 -4 40 7 8 17 12 23 8 8 -5 7 -8 -1 -11z m-265 -14 c-3
-8 -6 -5 -6 6 -1 11 2 17 5 13 3 -3 4 -12 1 -19z m525 -12 c2 -21 0 -32 -7
-30 -11 4 -14 64 -4 64 4 0 9 -15 11 -34z m88 -31 c0 -7 -6 -18 -14 -24 -10
-9 -17 -7 -27 6 -13 16 -12 17 3 4 15 -11 19 -11 24 3 3 9 0 23 -7 32 -12 14
-14 14 -26 -2 -7 -10 -13 -13 -13 -8 0 6 5 15 12 22 9 9 16 8 30 -5 10 -9 18
-22 18 -28z m-278 0 c2 -21 0 -34 -6 -32 -12 4 -17 67 -6 67 4 0 10 -16 12
-35z m-239 11 c4 -10 1 -13 -9 -9 -15 6 -19 23 -5 23 5 0 11 -7 14 -14z m294
-14 c-10 -2 -17 -11 -15 -20 4 -22 26 -26 31 -5 4 15 5 14 6 -4 1 -30 -17 -39
-34 -17 -26 34 -11 74 20 55 6 -3 2 -7 -8 -9z m-237 -18 c0 -14 -4 -23 -10
-19 -5 3 -10 15 -10 26 0 10 5 19 10 19 6 0 10 -12 10 -26z m483 6 c-3 -11 -7
-20 -9 -20 -2 0 -4 9 -4 20 0 11 4 20 9 20 5 0 7 -9 4 -20z m-179 -8 c3 -5 -1
-9 -9 -9 -8 0 -12 4 -9 9 3 4 7 8 9 8 2 0 6 -4 9 -8z m-244 -28 c0 -14 -4 -23
-10 -19 -5 3 -10 15 -10 26 0 10 5 19 10 19 6 0 10 -12 10 -26z m48 -6 c-2 -6
-10 -14 -16 -16 -7 -2 -10 2 -6 12 7 18 28 22 22 4z m201 -18 c6 0 11 5 11 12
0 6 3 8 6 5 9 -9 -16 -38 -27 -31 -5 3 -14 15 -19 27 -10 20 -10 20 3 5 8 -10
19 -18 26 -18z m63 -14 c2 -21 0 -32 -7 -30 -11 4 -14 64 -4 64 4 0 9 -15 11
-34z m-241 -19 c-8 -8 -11 -5 -11 9 0 27 14 41 18 19 2 -9 -1 -22 -7 -28z m49
8 c0 -14 0 -27 0 -30 0 -3 -3 -5 -7 -5 -4 0 -8 13 -9 30 -1 16 2 30 7 30 5 0
9 -11 9 -25z m233 0 c-3 -9 -8 -14 -10 -11 -3 3 -2 9 2 15 9 16 15 13 8 -4z
m-171 -25 c0 -11 1 -24 2 -30 1 -5 -3 -10 -9 -10 -5 0 -10 13 -11 30 -2 33 15
42 18 10z m207 -16 c-14 -13 -17 -13 -30 3 -13 16 -12 17 3 4 15 -11 19 -11
24 3 4 9 9 14 12 11 3 -3 -1 -12 -9 -21z m28 -6 c-3 -8 -6 -5 -6 6 -1 11 2 17
5 13 3 -3 4 -12 1 -19z m-174 5 c-7 -2 -13 -11 -13 -19 0 -8 -4 -14 -10 -14
-5 0 -10 9 -10 20 0 14 6 20 23 19 12 0 16 -3 10 -6z m20 -50 c-3 -7 -11 -13
-18 -13 -10 0 -11 5 -2 24 12 25 30 15 20 -11z m-198 18 c3 -5 1 -12 -5 -16
-5 -3 -10 1 -10 9 0 18 6 21 15 7z m245 -28 c0 -20 -3 -33 -7 -29 -11 11 -12
66 -2 66 5 0 9 -16 9 -37z m68 -5 c15 -15 16 -45 2 -53 -16 -10 -40 15 -40 41
0 26 19 31 38 12z m-188 -38 c0 -16 -4 -30 -10 -30 -11 0 -14 43 -3 53 11 12
13 8 13 -23z m50 -14 c0 -3 -4 -8 -10 -11 -5 -3 -10 -1 -10 4 0 6 5 11 10 11
6 0 10 -2 10 -4z m30 -31 c0 -8 -4 -15 -10 -15 -5 0 -10 7 -10 15 0 8 5 15 10
15 6 0 10 -7 10 -15z m40 -21 c0 -21 -4 -33 -10 -29 -5 3 -10 19 -10 36 0 16
5 29 10 29 6 0 10 -16 10 -36z m41 -21 c-10 -17 -10 -16 -11 3 0 23 13 41 18
25 2 -6 -1 -18 -7 -28z"/>
<path d="M1740 2896 c0 -27 15 -42 25 -26 8 13 -3 50 -16 50 -5 0 -9 -11 -9
-24z"/>
<path d="M1930 2451 c0 -12 6 -21 16 -21 9 0 14 7 12 17 -5 25 -28 28 -28 4z"/>
<path d="M1430 2905 c0 -8 5 -15 10 -15 6 0 10 7 10 15 0 8 -4 15 -10 15 -5 0
-10 -7 -10 -15z"/>
<path d="M1874 2846 c-6 -17 2 -36 17 -36 12 0 12 37 -1 45 -6 3 -13 -1 -16
-9z"/>
<path d="M1940 2807 c0 -8 7 -20 15 -27 12 -10 15 -10 15 3 0 8 -7 20 -15 27
-12 10 -15 10 -15 -3z"/>
<path d="M753 2603 c-14 -5 -18 -33 -5 -33 4 0 13 9 20 20 12 20 8 23 -15 13z"/>
<path d="M2704 2491 c-81 -37 -144 -153 -128 -238 21 -116 113 -196 224 -196
78 0 169 48 143 74 -7 7 -22 3 -44 -10 -96 -56 -223 -19 -275 80 -18 36 -18
132 0 167 17 32 61 74 96 92 41 22 132 17 175 -9 25 -14 41 -19 48 -12 14 14
1 29 -43 51 -51 26 -140 26 -196 1z"/>
<path d="M3666 2495 c-3 -9 -6 -50 -6 -91 0 -41 -2 -74 -5 -74 -2 0 -19 9 -37
20 -114 70 -262 -43 -227 -173 23 -85 109 -138 190 -117 52 14 106 77 114 132
10 70 2 311 -11 315 -6 2 -14 -3 -18 -12z m-79 -170 c38 -11 73 -62 73 -106 0
-68 -29 -105 -98 -124 -33 -10 -88 12 -117 46 -52 63 -20 165 58 188 32 9 41
8 84 -4z"/>
<path d="M4135 2498 c-3 -8 -4 -108 -3 -223 3 -179 5 -210 18 -210 12 0 16 19
18 98 l3 97 93 0 c66 0 97 4 105 13 18 23 2 27 -101 27 l-98 0 0 90 0 89 135
3 c188 4 177 22 -15 26 -116 2 -152 0 -155 -10z"/>
<path d="M5280 2420 c0 -49 -2 -90 -4 -90 -3 0 -21 10 -41 21 -29 17 -47 20
-92 17 -50 -4 -60 -9 -94 -45 -63 -68 -62 -158 2 -222 55 -56 140 -60 203 -10
51 40 60 72 64 226 5 154 0 193 -23 193 -12 0 -15 -17 -15 -90z m-50 -109 c33
-24 50 -58 50 -104 0 -31 -7 -46 -33 -72 -65 -65 -159 -51 -200 28 -57 110 79
220 183 148z"/>
<path d="M4530 2451 c0 -11 4 -22 8 -25 14 -9 35 12 29 28 -9 23 -37 20 -37
-3z"/>
<path d="M3085 2350 c-48 -31 -78 -92 -73 -150 14 -146 193 -196 281 -78 28
38 34 116 12 162 -38 79 -148 112 -220 66z m152 -36 c61 -39 69 -137 14 -186
-60 -54 -150 -42 -191 24 -68 112 65 233 177 162z"/>
<path d="M3835 2350 c-132 -84 -74 -293 80 -293 46 0 105 27 105 48 0 19 -9
19 -55 -1 -50 -20 -100 -11 -137 26 -53 53 -43 59 105 62 l132 3 3 27 c5 40
-26 96 -67 124 -46 31 -122 33 -166 4z m155 -39 c27 -20 52 -60 44 -73 -3 -4
-57 -8 -120 -8 -105 0 -114 2 -114 19 0 10 9 30 21 45 37 46 116 55 169 17z"/>
<path d="M4537 2363 c-12 -12 -8 -291 4 -299 22 -13 29 22 29 148 0 145 -7
178 -33 151z"/>
<path d="M4652 2213 c3 -184 20 -215 28 -52 5 105 11 126 50 156 41 32 114 19
155 -27 16 -18 21 -41 25 -129 6 -134 24 -136 28 -4 3 113 -11 153 -67 190
-40 27 -116 31 -147 8 -25 -19 -44 -19 -44 0 0 8 -7 15 -15 15 -13 0 -15 -22
-13 -157z"/>
<path d="M601 2033 c0 -6 -10 -10 -21 -8 -13 2 -20 -2 -20 -11 0 -8 5 -12 10
-9 6 3 10 -1 10 -10 0 -15 1 -15 16 -1 8 9 13 24 11 34 -3 9 -5 12 -6 5z"/>
<path d="M600 1974 c0 -13 18 -39 24 -34 2 3 -2 14 -10 24 -8 11 -14 16 -14
10z"/>
</g>
</svg>
