<?xml version="1.0" standalone="no"?>
<!DOCTYPE svg PUBLIC "-//W3C//DTD SVG 20010904//EN"
 "http://www.w3.org/TR/2001/REC-SVG-20010904/DTD/svg10.dtd">
<svg version="1.0" xmlns="http://www.w3.org/2000/svg"
 width="600.000000pt" height="500.000000pt" viewBox="0 0 600.000000 500.000000"
 preserveAspectRatio="xMidYMid meet">

<g transform="translate(0.000000,500.000000) scale(0.100000,-0.100000)"
fill="#000000" stroke="none">
<path d="M2704 2491 c-81 -37 -144 -153 -128 -238 21 -116 113 -196 224 -196
78 0 169 48 143 74 -7 7 -22 3 -44 -10 -96 -56 -223 -19 -275 80 -18 36 -18
132 0 167 17 32 61 74 96 92 41 22 132 17 175 -9 25 -14 41 -19 48 -12 14 14
1 29 -43 51 -51 26 -140 26 -196 1z"/>
<path d="M3666 2495 c-3 -9 -6 -50 -6 -91 0 -41 -2 -74 -5 -74 -2 0 -19 9 -37
20 -114 70 -262 -43 -227 -173 23 -85 109 -138 190 -117 52 14 106 77 114 132
10 70 2 311 -11 315 -6 2 -14 -3 -18 -12z m-79 -170 c38 -11 73 -62 73 -106 0
-68 -29 -105 -98 -124 -33 -10 -88 12 -117 46 -52 63 -20 165 58 188 32 9 41
8 84 -4z"/>
<path d="M4135 2498 c-3 -8 -4 -108 -3 -223 3 -179 5 -210 18 -210 12 0 16 19
18 98 l3 97 93 0 c66 0 97 4 105 13 18 23 2 27 -101 27 l-98 0 0 90 0 89 135
3 c188 4 177 22 -15 26 -116 2 -152 0 -155 -10z"/>
<path d="M5280 2420 c0 -49 -2 -90 -4 -90 -3 0 -21 10 -41 21 -29 17 -47 20
-92 17 -50 -4 -60 -9 -94 -45 -63 -68 -62 -158 2 -222 55 -56 140 -60 203 -10
51 40 60 72 64 226 5 154 0 193 -23 193 -12 0 -15 -17 -15 -90z m-50 -109 c33
-24 50 -58 50 -104 0 -31 -7 -46 -33 -72 -65 -65 -159 -51 -200 28 -57 110 79
220 183 148z"/>
<path d="M4530 2451 c0 -11 4 -22 8 -25 14 -9 35 12 29 28 -9 23 -37 20 -37
-3z"/>
<path d="M3085 2350 c-48 -31 -78 -92 -73 -150 14 -146 193 -196 281 -78 28
38 34 116 12 162 -38 79 -148 112 -220 66z m152 -36 c61 -39 69 -137 14 -186
-60 -54 -150 -42 -191 24 -68 112 65 233 177 162z"/>
<path d="M3835 2350 c-132 -84 -74 -293 80 -293 46 0 105 27 105 48 0 19 -9
19 -55 -1 -50 -20 -100 -11 -137 26 -53 53 -43 59 105 62 l132 3 3 27 c5 40
-26 96 -67 124 -46 31 -122 33 -166 4z m155 -39 c27 -20 52 -60 44 -73 -3 -4
-57 -8 -120 -8 -105 0 -114 2 -114 19 0 10 9 30 21 45 37 46 116 55 169 17z"/>
<path d="M4537 2363 c-12 -12 -8 -291 4 -299 22 -13 29 22 29 148 0 145 -7
178 -33 151z"/>
<path d="M4652 2213 c3 -184 20 -215 28 -52 5 105 11 126 50 156 41 32 114 19
155 -27 16 -18 21 -41 25 -129 6 -134 24 -136 28 -4 3 113 -11 153 -67 190
-40 27 -116 31 -147 8 -25 -19 -44 -19 -44 0 0 8 -7 15 -15 15 -13 0 -15 -22
-13 -157z"/>
</g>
</svg>
